<?xml version="1.0" encoding="UTF-8"?>
<svg version="1.1" xmlns="http://www.w3.org/2000/svg" width="512" height="512">
<path d="M0 0 C3.1672646 0.01614703 6.33326058 -0.00000739 9.50048828 -0.01904297 C39.12694256 -0.04996859 74.88429316 3.58721447 98.03564453 24.39111328 C104.92041974 31.33558564 110.15208569 39.24146039 115.47900391 47.39501953 C125.74916304 62.83774057 138.33454758 68.90701999 155.47314453 74.89111328 C170.06417608 79.98791342 183.15231463 84.97736838 194.03564453 96.39111328 C194.72916016 97.08849609 195.42267578 97.78587891 196.13720703 98.50439453 C207.88125766 110.90593062 221.97715405 134.09281568 223.27392578 151.60986328 C222.95782132 155.29947602 221.65789463 156.84378462 219.03564453 159.39111328 C218.04564453 159.39111328 217.05564453 159.39111328 216.03564453 159.39111328 C216.69564453 162.36111328 217.35564453 165.33111328 218.03564453 168.39111328 C218.92251953 168.30861328 219.80939453 168.22611328 220.72314453 168.14111328 C224.90051504 168.45638653 226.12056721 169.4191564 229.03564453 172.39111328 C229.87837728 174.99943049 230.40436121 177.1574096 230.78564453 179.82861328 C230.89924316 180.53219971 231.0128418 181.23578613 231.12988281 181.96069336 C231.46155982 184.1011446 231.75494755 186.24343177 232.03564453 188.39111328 C232.20322266 189.63376953 232.37080078 190.87642578 232.54345703 192.15673828 C233.5668625 201.69400625 233.5668625 201.69400625 230.03564453 206.39111328 C227.84814453 207.20361328 227.84814453 207.20361328 226.03564453 207.39111328 C226.20064453 208.33986328 226.36564453 209.28861328 226.53564453 210.26611328 C227.22106245 214.96750098 227.12147895 219.65114615 227.03564453 224.39111328 C228.21126953 224.54580078 228.21126953 224.54580078 229.41064453 224.70361328 C232.03564453 225.39111328 232.03564453 225.39111328 234.03564453 228.39111328 C234.48035883 231.87292978 234.36795866 235.38401269 234.34814453 238.89111328 C234.34250488 239.92413574 234.33686523 240.9571582 234.33105469 242.02148438 C234.06446571 259.18084016 230.25862006 275.10791221 225.03564453 291.39111328 C224.81038086 292.0983252 224.58511719 292.80553711 224.35302734 293.53417969 C217.41188905 314.7985488 205.95933256 334.65799931 190.35986328 350.69580078 C185.4415726 356.39936476 182.33903176 362.36257452 180.09814453 369.51611328 C179.8485498 370.28036621 179.59895508 371.04461914 179.34179688 371.83203125 C177.66397678 377.0758765 176.24665121 382.36435873 174.88598633 387.69799805 C170.14995212 406.09855103 163.48987843 422.21497103 146.66064453 432.70361328 C129.25983014 442.29643161 108.22299801 444.97473412 88.80908203 447.46533203 C74.79090361 449.28242939 61.21086294 451.18350675 47.66064453 455.39111328 C46.00186279 455.90593262 46.00186279 455.90593262 44.30957031 456.43115234 C40.35269557 457.67730902 36.40218913 458.94104282 32.46191406 460.23876953 C7.5273445 468.2403488 -22.52875259 466.07898895 -47.96435547 461.39111328 C-49.15061523 461.17430908 -49.15061523 461.17430908 -50.36083984 460.953125 C-75.7958886 456.09117559 -94.01010559 444.84312311 -108.69384766 423.28662109 C-109.97859028 421.36987595 -111.24433933 419.44198969 -112.50341797 417.50830078 C-126.19977904 396.4742254 -141.61237574 387.22699554 -164.00683594 377.00195312 C-186.49927955 366.68860586 -186.49927955 366.68860586 -193.96435547 359.39111328 C-194.63724609 358.80458984 -195.31013672 358.21806641 -196.00341797 357.61376953 C-214.02001095 341.16232459 -221.68638206 314.94271572 -226.21435547 291.82861328 C-226.36541748 291.06403809 -226.51647949 290.29946289 -226.67211914 289.51171875 C-229.43032839 274.38123756 -230.33774563 259.13863973 -230.33496094 243.7824707 C-230.33938213 241.06220966 -230.37603705 238.34351713 -230.41357422 235.62353516 C-230.48117682 225.14762495 -229.63898633 216.30361682 -225.96435547 206.39111328 C-225.70847656 205.66384033 -225.45259766 204.93656738 -225.18896484 204.18725586 C-221.0790718 193.13100323 -214.8960615 183.01015463 -209.05810547 172.81298828 C-204.0096017 163.98723049 -199.34596989 155.38787164 -196.49169922 145.56689453 C-196.27666245 144.83051254 -196.06162567 144.09413055 -195.84007263 143.33543396 C-193.76620481 136.02835575 -192.31153812 128.64175581 -190.93893433 121.17675781 C-187.52032074 102.73351094 -183.89434853 84.70002264 -172.65185547 69.20361328 C-169.2296983 66.89564682 -166.97769444 67.05210998 -162.95263672 67.41064453 C-160.72730619 67.62081531 -160.72730619 67.62081531 -158.96435547 65.39111328 C-158.98888576 63.44400179 -158.98888576 63.44400179 -159.27685547 61.26611328 C-159.34712736 57.27978072 -158.65228479 55.32490072 -156.08935547 52.26611328 C-150.97066658 47.10597752 -145.44289125 41.89606202 -138.08935547 40.82861328 C-134.96435547 41.39111328 -134.96435547 41.39111328 -133.15185547 42.63720703 C-130.80594057 43.72603851 -130.80594057 43.72603851 -128.01904297 42.05517578 C-126.96974609 41.38228516 -125.92044922 40.70939453 -124.83935547 40.01611328 C-119.11493462 36.39111328 -119.11493462 36.39111328 -116.96435547 36.39111328 C-117.06748047 35.17423828 -117.17060547 33.95736328 -117.27685547 32.70361328 C-117.5549864 29.4216683 -117.05775682 28.50937292 -114.96826172 25.86376953 C-111.36943185 22.90140373 -107.88588808 21.24606 -103.58935547 19.51611328 C-102.34738403 19.00794067 -102.34738403 19.00794067 -101.08032227 18.48950195 C-87.11603114 12.92220908 -72.71584132 8.79578665 -58.02685547 5.64111328 C-57.17260986 5.45460205 -56.31836426 5.26809082 -55.43823242 5.07592773 C-37.09218652 1.36274002 -18.69099578 -0.112788 0 0 Z " fill="#A3A3A3" transform="translate(253.96435546875,23.60888671875)"/>
<path d="M0 0 C0.85251343 -0.00190338 1.70502686 -0.00380676 2.58337402 -0.00576782 C29.4005913 0.00102806 62.65981065 1.66528747 83.75 20.375 C84.41128906 20.931875 85.07257813 21.48875 85.75390625 22.0625 C91.78904543 27.90864735 93.12765921 35.42716884 94.75 43.375 C95.07097656 44.87933594 95.07097656 44.87933594 95.3984375 46.4140625 C97.02841955 54.98918545 97.3582162 63.6732755 97.75 72.375 C96.66332031 72.39626953 96.66332031 72.39626953 95.5546875 72.41796875 C88.86439397 72.74802323 85.34992156 73.41192674 80.75 78.375 C78.57803452 82.71893096 79.49745674 88.21751005 80.5 92.8125 C81.52758381 95.45904259 81.52758381 95.45904259 83.6875 96.6875 C84.7084375 97.0278125 84.7084375 97.0278125 85.75 97.375 C86.74 97.705 87.73 98.035 88.75 98.375 C90.31118428 98.44240865 91.8750252 98.46014456 93.4375 98.4375 C94.24574219 98.42847656 95.05398438 98.41945313 95.88671875 98.41015625 C96.50160156 98.39855469 97.11648438 98.38695312 97.75 98.375 C96.79660799 122.78183544 92.16030188 161.94705005 75.28808594 181.02832031 C73.75 182.375 73.75 182.375 71.125 184 C68.44882027 186.67617973 68.50127126 186.99261992 68.3828125 190.53515625 C67.92597765 195.67274372 66.10262374 198.971638 63.25 203.1875 C62.80221191 203.87473145 62.35442383 204.56196289 61.89306641 205.27001953 C57.77892107 211.51012083 53.3605592 217.49256241 48.75 223.375 C47.73099609 224.71884766 47.73099609 224.71884766 46.69140625 226.08984375 C43.11016211 230.73219726 39.47396089 234.71214997 34.9609375 238.44921875 C31.21118965 241.71534187 27.814422 245.34587388 24.36328125 248.921875 C21.94120419 251.19551386 19.66104864 252.80146019 16.75 254.375 C14.59048804 246.43311063 19.14872908 239.16584786 22.9375 232.3125 C26.56118182 226.33497359 30.82588686 221.31639073 35.75 216.375 C36.34039062 215.76140625 36.93078125 215.1478125 37.5390625 214.515625 C42.50847824 209.74323455 48.3403968 206.613117 54.37915039 203.39428711 C58.20705971 201.57296024 58.20705971 201.57296024 60.75 198.375 C61.16673207 194.91699641 61.16673207 194.91699641 60.75 191.375 C58.60340465 188.81559785 57.30584464 188.42703652 53.99609375 188.1171875 C44.61497268 188.86225849 35.72349255 196.44947201 28.75 202.375 C27.66138672 203.22964844 27.66138672 203.22964844 26.55078125 204.1015625 C11.456644 216.48244297 2.3256576 235.45861788 -1.25 254.375 C-1.34799837 255.77986255 -1.42308144 257.18648946 -1.4765625 258.59375 C-1.91258553 268.94036214 -1.91258553 268.94036214 -5.453125 272.73828125 C-8.2266074 274.49167392 -11.02026039 275.95506323 -14.00488281 277.31445312 C-16.56931852 278.52583946 -19.03826223 279.86783958 -21.5234375 281.234375 C-33.09064356 287.54862472 -44.80791286 292.99181912 -57.15429688 297.59375 C-59.04097698 298.29707902 -60.91949674 299.02220578 -62.796875 299.75 C-66.95781946 301.3351217 -69.74460821 302.375 -74.25 302.375 C-73.12548273 299.4030615 -72.02706209 297.04059313 -70.25 294.375 C-69.80140295 289.73012229 -69.80140295 289.73012229 -71.3125 285.4375 C-74.4152833 283.73597367 -76.78769185 283.94980426 -80.25 284.375 C-82.47845348 285.84909152 -82.47845348 285.84909152 -84.25 288.375 C-84.76949219 288.98085938 -85.28898438 289.58671875 -85.82421875 290.2109375 C-88.43456547 293.38716358 -90.11609155 295.50459508 -90.75 299.625 C-90.2733687 302.24647216 -89.64102052 304.11459165 -88.25 306.375 C-91.0625 307.0625 -91.0625 307.0625 -94.25 307.375 C-94.930625 306.6634375 -94.930625 306.6634375 -95.625 305.9375 C-97.32765742 303.97150758 -97.32765742 303.97150758 -101 304.0625 C-103.80743823 304.15913284 -105.76495732 304.53344841 -108.5 305.375 C-119.45076033 308.29520275 -130.46952497 306.18189025 -140.26953125 300.6796875 C-150.49117013 293.77204098 -156.83315076 284.51611323 -159.25 272.375 C-160.57513936 259.8986879 -158.43233781 249.93615797 -151.0625 239.5625 C-143.94228238 231.07360124 -134.16426066 225.3334061 -123.12109375 223.99609375 C-111.44637069 223.5605746 -100.20771952 226.72361457 -91.25 234.375 C-82.37397856 242.91817063 -77.77758968 251.86983787 -76.875 264.125 C-76.56252626 267.13516373 -76.26410952 268.35220769 -74.625 271 C-72.19353853 272.67249029 -72.19353853 272.67249029 -68.6875 272.375 C-64.85880789 271.26119866 -64.21798981 270.6901257 -62.25 267.375 C-59.90192524 256.07885654 -65.48799625 243.45450598 -71.34375 234.125 C-79.25203481 222.71632683 -89.11053393 215.79928722 -102.25 211.375 C-103.44625 210.9625 -104.6425 210.55 -105.875 210.125 C-119.92165947 206.9687668 -134.68668255 209.79879611 -147.23046875 216.45703125 C-161.010963 225.21023005 -169.83480958 237.87361388 -173.8359375 253.69140625 C-176.19451837 268.97768037 -173.65047713 284.28705663 -165.25 297.375 C-159.56168658 304.83564736 -159.56168658 304.83564736 -152.25 310.375 C-152.25 311.035 -152.25 311.695 -152.25 312.375 C-161.29447876 312.81185318 -170.02796183 312.08256995 -179 311 C-180.05243896 310.87391357 -181.10487793 310.74782715 -182.18920898 310.61791992 C-184.23593681 310.36016953 -186.28051576 310.08463628 -188.32226562 309.79003906 C-190.24220861 309.51786569 -192.16890183 309.28903009 -194.09960938 309.10839844 C-200.40644554 308.31600107 -200.40644554 308.31600107 -202.64697266 305.81665039 C-203.7685474 303.70368842 -204.53054194 301.65615021 -205.25 299.375 C-205.52102539 298.58883301 -205.79205078 297.80266602 -206.07128906 296.99267578 C-206.89821645 294.48850879 -207.64544808 291.97163142 -208.375 289.4375 C-208.75205078 288.17389648 -208.75205078 288.17389648 -209.13671875 286.88476562 C-214.86696314 267.39893458 -216.51930108 247.27054398 -216.72479248 227.02651978 C-216.74131366 225.49351057 -216.7658062 223.96056188 -216.7991333 222.42782593 C-217.07464321 208.29089438 -214.28064671 195.58247616 -207.1875 183.1875 C-206.62712036 182.16293701 -206.62712036 182.16293701 -206.05541992 181.11767578 C-203.83790817 177.0945851 -201.52735506 173.12689393 -199.2109375 169.16015625 C-193.37299112 159.14616063 -187.89829542 149.41677795 -184.25 138.375 C-183.93482422 137.43696533 -183.61964844 136.49893066 -183.29492188 135.5324707 C-180.73500029 127.61525529 -179.08745498 119.7655572 -177.75 111.5625 C-174.67469452 93.78991863 -171.42299183 77.63448774 -161.25 62.375 C-160.88296326 58.1540775 -161.45114028 55.19757691 -163.25 51.375 C-162.59 50.715 -161.93 50.055 -161.25 49.375 C-161.27453029 47.42788851 -161.27453029 47.42788851 -161.5625 45.25 C-161.63277189 41.26366743 -160.93792932 39.30878744 -158.375 36.25 C-153.25631111 31.08986424 -147.72853578 25.87994874 -140.375 24.8125 C-137.25 25.375 -137.25 25.375 -135.5078125 26.65234375 C-133.00915505 27.7296062 -133.00915505 27.7296062 -129.796875 25.8203125 C-128.52150077 25.06305905 -127.25606412 24.28886954 -126 23.5 C-125.3503125 23.10941406 -124.700625 22.71882813 -124.03125 22.31640625 C-122.42879948 21.35022285 -120.83819707 20.36443828 -119.25 19.375 C-118.755 19.87 -118.26 20.365 -117.75 20.875 C-114.24687078 22.97687753 -111.18023438 22.97099247 -107.25 22.375 C-104.1278597 21.39405727 -101.21384569 20.06745427 -98.25 18.6875 C-89.71368221 14.91962598 -81.24747881 11.83298893 -72.25 9.375 C-71.50685547 9.1677832 -70.76371094 8.96056641 -69.99804688 8.74707031 C-46.95655807 2.43786397 -23.81147536 0.00569393 0 0 Z " fill="#CBCBCB" transform="translate(256.25,39.625)"/>
<path d="M0 0 C2.91543027 2.47811573 3.87717947 3.96479839 4.328125 7.765625 C3.92635984 11.72588156 2.35935402 14.35624927 0.25 17.625 C-6.38255322 28.16339012 -8.76757607 39.69455934 -11.0625 51.8125 C-11.55338542 54.33984375 -12.04427083 56.8671875 -12.53515625 59.39453125 C-13.28066884 63.24941321 -14.02012428 67.10500801 -14.73681641 70.96533203 C-16.07175071 77.97658583 -17.52558471 84.6449111 -20.25 91.25 C-20.57935547 92.0637207 -20.90871094 92.87744141 -21.24804688 93.71582031 C-25.98880376 104.92616898 -32.28937883 115.39574539 -38.29101562 125.96289062 C-40.52622755 129.93518153 -42.68179659 133.93846944 -44.75 138 C-45.32234375 139.11375 -45.8946875 140.2275 -46.484375 141.375 C-50.88678943 151.90448606 -51.49015195 161.74640631 -51.375 173 C-51.37101196 173.78669067 -51.36702393 174.57338135 -51.36291504 175.38391113 C-51.24383299 195.51081367 -49.94193512 215.66353316 -44 235 C-43.79004395 235.71414063 -43.58008789 236.42828125 -43.36376953 237.1640625 C-37.22558667 257.91887689 -28.12021234 276.69430575 -8.34277344 287.44433594 C-5.60245966 288.80202325 -2.84185526 290.09923037 -0.0625 291.375 C0.93096436 291.84196289 1.92442871 292.30892578 2.94799805 292.79003906 C7.74203455 295.04074606 12.5528831 297.25400721 17.3671875 299.4609375 C25.7760891 303.33726587 33.76752071 307.11527054 41 313 C42.10988281 313.86818359 42.10988281 313.86818359 43.2421875 314.75390625 C52.36896104 322.31744349 58.77619953 332.06131189 65.18237305 341.90283203 C76.86521899 359.80136002 88.78041091 371.19313453 110.18579102 375.76611328 C112.45299262 376.20577322 114.72411512 376.6078664 117 377 C118.21792236 377.22212158 118.21792236 377.22212158 119.46044922 377.44873047 C146.79409155 382.27904314 172.63153586 381.85437263 199 373 C201.24607175 372.28022165 203.49495425 371.57049314 205.74584961 370.8659668 C207.487623 370.31340873 209.21922602 369.72902971 210.94921875 369.140625 C224.06881105 365.16821533 237.90610725 363.86468991 251.45703125 362.19775391 C272.07429441 359.89186865 272.07429441 359.89186865 291.8125 353.875 C292.52188721 353.57424561 293.23127441 353.27349121 293.9621582 352.96362305 C305.14318783 347.94791753 311.64492862 340.41001567 316 329 C317.69763005 323.73752351 319.17117245 318.40774006 320.68359375 313.08984375 C320.97169922 312.07986328 321.25980469 311.06988281 321.55664062 310.02929688 C322.14461778 307.9655101 322.72794239 305.90039221 323.30664062 303.83398438 C326.77891656 291.7312854 331.59774691 280.57368014 340.25 271.25 C362.930455 246.74599083 378.22766332 209.73109851 379.16015625 176.2265625 C379.18754883 175.37586182 379.21494141 174.52516113 379.24316406 173.64868164 C379.28841543 171.96083764 379.31094319 170.27218745 379.30761719 168.58374023 C379.40905124 164.28124589 379.62139071 162.49461416 382.3203125 158.96875 C385 157 385 157 388.5625 156.4375 C392 157 392 157 394.1875 158.375 C397.05402721 162.52652217 396.54892675 166.63807912 396.4375 171.5625 C396.41550537 173.10526611 396.41550537 173.10526611 396.39306641 174.67919922 C395.97768653 191.80502053 392.21535812 207.74054704 387 224 C386.77473633 224.70721191 386.54947266 225.41442383 386.31738281 226.14306641 C379.37624452 247.40743552 367.92368803 267.26688603 352.32421875 283.3046875 C347.40592807 289.00825148 344.30338723 294.97146123 342.0625 302.125 C341.81290527 302.88925293 341.56331055 303.65350586 341.30615234 304.44091797 C339.62833225 309.68476322 338.21100668 314.97324545 336.8503418 320.30688477 C332.11430758 338.70743775 325.4542339 354.82385775 308.625 365.3125 C291.2241856 374.90531833 270.18735348 377.58362084 250.7734375 380.07421875 C236.75525908 381.89131611 223.17521841 383.79239347 209.625 388 C207.96621826 388.51481934 207.96621826 388.51481934 206.27392578 389.04003906 C202.31705103 390.28619574 198.3665446 391.54992953 194.42626953 392.84765625 C169.49169996 400.84923552 139.43560288 398.68787567 114 394 C112.81374023 393.7831958 112.81374023 393.7831958 111.60351562 393.56201172 C86.16846687 388.70006231 67.95424988 377.45200983 53.27050781 355.89550781 C51.98576519 353.97876267 50.72001614 352.05087641 49.4609375 350.1171875 C35.76457642 329.08311212 20.35197973 319.83588226 -2.04248047 309.61083984 C-24.53492408 299.29749258 -24.53492408 299.29749258 -32 292 C-32.67289063 291.41347656 -33.34578125 290.82695312 -34.0390625 290.22265625 C-52.05565548 273.77121131 -59.72202659 247.55160244 -64.25 224.4375 C-64.40106201 223.6729248 -64.55212402 222.90834961 -64.70776367 222.12060547 C-67.46597292 206.99012428 -68.37339016 191.74752645 -68.37060547 176.39135742 C-68.37502666 173.67109638 -68.41168159 170.95240385 -68.44921875 168.23242188 C-68.51682135 157.75651167 -67.67463086 148.91250354 -64 139 C-63.74412109 138.27272705 -63.48824219 137.5454541 -63.22460938 136.79614258 C-59.11471634 125.73988995 -52.93170603 115.61904135 -47.09375 105.421875 C-42.04524623 96.59611721 -37.38161442 87.99675836 -34.52734375 78.17578125 C-34.31230698 77.43939926 -34.0972702 76.70301727 -33.87571716 75.94432068 C-31.80184934 68.63724246 -30.34718266 61.25064252 -28.97457886 53.78564453 C-18.46176753 -2.93043929 -18.46176753 -2.93043929 0 0 Z " fill="#010101" transform="translate(92,91)"/>
<path d="M0 0 C3.54539088 2.80765236 6.79553089 5.81157998 10 9 C10.69996094 9.66515625 11.39992188 10.3303125 12.12109375 11.015625 C24.41645708 23.5746316 29.4768701 40.41564861 29.35644531 57.58251953 C29.17970297 64.38453834 28.24415245 70.550501 26 77 C25.74476563 77.82113281 25.48953125 78.64226562 25.2265625 79.48828125 C19.52127513 95.89752521 6.95876609 107.89305922 -8 116 C-22.96980895 122.88154616 -42.141562 125.13226274 -58.15234375 120.15625 C-77.95573785 112.1153657 -92.24326444 99.00715735 -100.8125 79.09765625 C-105.96347062 65.66107827 -106.3566895 46.49227595 -101 33 C-98.625 30.13671875 -98.625 30.13671875 -96 28 C-92.1875 27.6875 -92.1875 27.6875 -89 28 C-88.31506627 25.14221967 -88.31506627 25.14221967 -88 22 C-88.66 21.01 -89.32 20.02 -90 19 C-90.23144414 15.06544961 -89.65483358 12.81121174 -87.16796875 9.73046875 C-81.29845613 4.02094284 -81.29845613 4.02094284 -76.125 3.9375 C-75.09375 4.288125 -74.0625 4.63875 -73 5 C-69.37673261 6.2077558 -68.35853631 5.54311128 -65 4 C-65.0825 3.113125 -65.165 2.22625 -65.25 1.3125 C-64.93814526 -2.81957536 -63.83195007 -4.03500529 -61 -7 C-42.76984709 -16.81840025 -16.27752776 -11.28677632 0 0 Z " fill="#898989" transform="translate(386,259)"/>
<path d="M0 0 C12.83881228 9.73626941 20.15438844 23.04253708 22.45703125 38.86328125 C23.73731121 55.44395618 19.98864395 70.76873445 9.1328125 83.61328125 C-1.28874324 94.60744995 -15.24865117 102.02319647 -30.515625 103.06640625 C-47.63213178 103.32607513 -61.88852626 98.12759956 -74.328125 86.171875 C-86.20475749 73.79252791 -90.94041879 59.83537981 -90.84350586 42.82617188 C-90.45068372 27.90245383 -83.85141545 15.02212159 -73.4609375 4.55859375 C-69.14382233 0.57089701 -64.7515782 -2.43542613 -59.54296875 -5.13671875 C-58.63933594 -5.64203125 -57.73570312 -6.14734375 -56.8046875 -6.66796875 C-38.5520994 -15.37118956 -16.11235918 -11.0167961 0 0 Z " fill="#AAAAAA" transform="translate(265.54296875,76.13671875)"/>
<path d="M0 0 C3.1672646 0.01614703 6.33326058 -0.00000739 9.50048828 -0.01904297 C39.12694256 -0.04996859 74.88429316 3.58721447 98.03564453 24.39111328 C104.92041974 31.33558564 110.15208569 39.24146039 115.47900391 47.39501953 C125.74916304 62.83774057 138.33454758 68.90701999 155.47314453 74.89111328 C170.06417608 79.98791342 183.15231463 84.97736838 194.03564453 96.39111328 C194.72916016 97.08849609 195.42267578 97.78587891 196.13720703 98.50439453 C207.83878646 110.86108169 222.04932043 134.13267367 223.25830078 151.60986328 C222.95288566 155.42487321 221.90574508 156.88897434 219.03564453 159.39111328 C215.04061682 160.04484509 212.94710634 159.95728204 209.48876953 157.80908203 C206.52755999 154.89031021 205.45899656 152.00297604 204.22314453 148.14111328 C199.43491344 134.45146145 193.21330944 122.66011049 184.03564453 111.39111328 C183.54708984 110.71564453 183.05853516 110.04017578 182.55517578 109.34423828 C175.16833886 99.55288846 162.32868395 95.7083974 151.16064453 91.89111328 C127.83134623 83.87222593 111.77723454 73.90063625 98.03564453 52.82861328 C86.03343228 34.53547529 70.70893252 25.77309182 49.56787109 20.81201172 C44.42214022 19.7585715 39.25601686 18.96301742 34.03564453 18.39111328 C33.20468262 18.29902588 32.3737207 18.20693848 31.51757812 18.11206055 C-13.84438662 13.71339643 -61.4073802 18.99684553 -102.86669922 38.58374023 C-106.48840248 39.97770819 -109.1125282 39.91339495 -112.96435547 39.39111328 C-115.46435547 37.82861328 -115.46435547 37.82861328 -116.96435547 35.39111328 C-117.52685547 31.95361328 -117.52685547 31.95361328 -116.96435547 28.39111328 C-113.17458893 23.71829434 -109.02362108 21.70415438 -103.58935547 19.51611328 C-102.76137451 19.17733154 -101.93339355 18.8385498 -101.08032227 18.48950195 C-87.11603114 12.92220908 -72.71584132 8.79578665 -58.02685547 5.64111328 C-57.17260986 5.45460205 -56.31836426 5.26809082 -55.43823242 5.07592773 C-37.09218652 1.36274002 -18.69099578 -0.112788 0 0 Z " fill="#010101" transform="translate(253.96435546875,23.60888671875)"/>
<path d="M0 0 C9.72247717 7.09526367 16.15626518 16.43758872 18.1875 28.3125 C18.32114264 29.87428452 18.44603943 31.43684032 18.5625 33 C18.85720156 36.45979632 18.99555292 37.09922547 21.4375 39.8125 C22.015 40.6375 22.5925 41.4625 23.1875 42.3125 C22.61584016 45.50060293 21.44093499 48.33866405 20.1875 51.3125 C20.1875 51.6425 20.1875 51.9725 20.1875 52.3125 C18.640625 52.56 18.640625 52.56 17.0625 52.8125 C12.01280146 54.21576308 9.88823074 58.08999529 7.1875 62.3125 C6.5275 63.3025 5.8675 64.2925 5.1875 65.3125 C4.85043792 69.27297946 5.09320539 71.90927126 7.1875 75.3125 C4.375 76 4.375 76 1.1875 76.3125 C0.73375 75.838125 0.28 75.36375 -0.1875 74.875 C-1.89015742 72.90900758 -1.89015742 72.90900758 -5.5625 73 C-8.36993823 73.09663284 -10.32745732 73.47094841 -13.0625 74.3125 C-24.01326033 77.23270275 -35.03202497 75.11939025 -44.83203125 69.6171875 C-55.05367013 62.70954098 -61.39565076 53.45361323 -63.8125 41.3125 C-65.13763936 28.8361879 -62.99483781 18.87365797 -55.625 8.5 C-41.40321896 -8.45555752 -18.75274134 -11.54757143 0 0 Z " fill="#AAAAAA" transform="translate(160.8125,270.6875)"/>
<path d="M0 0 C3.54539088 2.80765236 6.79553089 5.81157998 10 9 C10.69996094 9.66515625 11.39992188 10.3303125 12.12109375 11.015625 C24.41645708 23.5746316 29.4768701 40.41564861 29.35644531 57.58251953 C29.17970297 64.38453834 28.24415245 70.550501 26 77 C25.74476563 77.82113281 25.48953125 78.64226562 25.2265625 79.48828125 C19.52127513 95.89752521 6.95876609 107.89305922 -8 116 C-22.96980895 122.88154616 -42.141562 125.13226274 -58.15234375 120.15625 C-77.95573785 112.1153657 -92.24326444 99.00715735 -100.8125 79.09765625 C-105.96347062 65.66107827 -106.3566895 46.49227595 -101 33 C-98.609375 30.12109375 -98.609375 30.12109375 -96 28 C-92.08916204 27.93138881 -89.84466394 28.49320163 -86.5 30.5 C-84.20148249 34.33086251 -85.08643252 37.76010988 -86 42 C-86.33 42.99 -86.66 43.98 -87 45 C-87.71964717 61.7694526 -86.04154169 75.25564397 -75.65234375 89.13671875 C-66.27754125 99.25708728 -54.7258768 104.98316771 -41.04345703 105.5168457 C-25.29636636 105.76318216 -13.0204253 101.61617904 -1.3125 90.75 C9.26077708 79.63701969 12.36923452 66.51766211 12.2109375 51.55859375 C11.46099541 38.90679292 5.40910004 26.52417509 -4 18 C-10.77153896 12.84475661 -17.8726406 9.45006296 -26 7 C-26.639375 6.80535156 -27.27875 6.61070312 -27.9375 6.41015625 C-35.76233988 4.85408014 -43.90188743 5.9899498 -51.625 7.5390625 C-54.54288325 8.10536221 -57.04615877 8.43226945 -60 8 C-62.93507943 5.93751175 -63.84435488 4.45720755 -65 1.0625 C-65 -2.9914378 -63.76489075 -4.10608101 -61 -7 C-42.76984709 -16.81840025 -16.27752776 -11.28677632 0 0 Z " fill="#020202" transform="translate(386,259)"/>
<path d="M0 0 C12.83881228 9.73626941 20.15438844 23.04253708 22.45703125 38.86328125 C23.73731121 55.44395618 19.98864395 70.76873445 9.1328125 83.61328125 C-1.28874324 94.60744995 -15.24865117 102.02319647 -30.515625 103.06640625 C-47.63213178 103.32607513 -61.88852626 98.12759956 -74.328125 86.171875 C-86.20475749 73.79252791 -90.94041879 59.83537981 -90.84350586 42.82617188 C-90.45068372 27.90245383 -83.85141545 15.02212159 -73.4609375 4.55859375 C-69.14382233 0.57089701 -64.7515782 -2.43542613 -59.54296875 -5.13671875 C-58.63933594 -5.64203125 -57.73570312 -6.14734375 -56.8046875 -6.66796875 C-38.5520994 -15.37118956 -16.11235918 -11.0167961 0 0 Z M-67.54296875 21.86328125 C-74.12989269 33.06942515 -76.28114923 43.40846512 -73.9296875 56.19921875 C-70.78254813 66.76362493 -64.56740576 75.49823805 -55.234375 81.42578125 C-45.17509746 86.79851584 -35.14526117 88.66229701 -23.9609375 86.015625 C-10.81669524 81.81459416 -2.55722969 74.56274226 3.70703125 62.4453125 C8.06195552 52.45015645 8.30113589 40.44833033 4.33203125 30.30078125 C0.24982896 21.94198609 -4.62656822 15.81103158 -12.54296875 10.86328125 C-13.27515625 10.37472656 -14.00734375 9.88617188 -14.76171875 9.3828125 C-32.55978062 -0.67083954 -55.6976268 6.0614009 -67.54296875 21.86328125 Z " fill="#020202" transform="translate(265.54296875,76.13671875)"/>
<path d="M0 0 C13.63917261 10.08631121 21.9714632 22.9621978 25.234375 39.65234375 C25.81419639 44.56336106 25.94608334 48.25739541 23.671875 52.71484375 C20.40497535 55.31161014 18.40027659 55.79851574 14.234375 55.65234375 C11.421875 53.96484375 11.421875 53.96484375 9.234375 50.65234375 C8.52295524 47.6816273 8.08723448 44.73790005 7.6796875 41.7109375 C6.1223046 31.01417598 0.90954955 22.12214155 -7.41796875 15.22265625 C-17.32778156 8.59412921 -28.06600947 6.72657142 -39.765625 7.65234375 C-50.42614632 9.90194301 -59.76817381 16.06796916 -65.765625 25.15234375 C-66.79825675 26.9674974 -67.80216946 28.79954464 -68.765625 30.65234375 C-69.12527344 31.28527344 -69.48492187 31.91820312 -69.85546875 32.5703125 C-73.81444271 40.8348987 -72.76586393 52.47751646 -70.203125 61.02734375 C-66.27933324 71.10342223 -60.40195709 78.57846498 -50.765625 83.65234375 C-39.92900027 88.24021125 -30.00910511 89.11187609 -18.765625 85.65234375 C-14.82560162 85.12900099 -11.7413041 85.04254431 -8.265625 87.21484375 C-6.18169682 90.60122704 -6.20760403 92.74619693 -6.765625 96.65234375 C-11.43482669 102.44258921 -18.66216355 104.06604531 -25.82275391 104.88867188 C-41.13325063 106.00370229 -55.25298167 102.0832347 -67.4609375 92.546875 C-79.18640364 82.37897078 -87.61348305 69.43797268 -88.93408203 53.63671875 C-89.81598305 37.45992342 -86.32612267 22.86371541 -75.453125 10.33984375 C-55.21634194 -10.77679944 -25.0761555 -16.53511596 0 0 Z " fill="#030303" transform="translate(169.765625,257.34765625)"/>
<path d="M0 0 C8.51665773 4.78985628 13.82023891 11.08787765 16.72265625 20.53125 C18.3433747 29.96712776 17.43951682 38.65669914 12.5546875 47.0078125 C7.51970835 53.94298634 1.61152934 57.48699607 -6.27734375 60.53125 C-7.26734375 61.02625 -7.26734375 61.02625 -8.27734375 61.53125 C-16.77317015 62.21949092 -23.93948204 62.08725311 -31.27734375 57.53125 C-31.97472656 57.10714844 -32.67210937 56.68304688 -33.390625 56.24609375 C-40.06078668 51.73651175 -44.83208655 45.21949112 -47.27734375 37.53125 C-48.43598227 26.73585844 -47.87869281 17.6045936 -41.27734375 8.53125 C-30.41694173 -3.75932842 -14.87106831 -7.05347114 0 0 Z " fill="#020202" transform="translate(271.27734375,388.46875)"/>
<path d="M0 0 C8.59615245 4.79228011 14.07217356 10.73995817 17.2421875 20.25 C18.09737177 31.69725225 17.7484093 40.07792357 10.55078125 49.453125 C4.75331098 55.98889524 -2.45739384 59.5502952 -11.1015625 60.69140625 C-18.19721417 60.94837494 -23.68870876 59.94223041 -29.7578125 56.25 C-30.80582031 55.63125 -30.80582031 55.63125 -31.875 55 C-38.90849382 50.32869845 -44.06396804 42.54983786 -45.7578125 34.25 C-46.67832531 23.57205145 -44.6400602 15.63060526 -37.7890625 7.328125 C-27.60378216 -3.09220027 -13.43742574 -6.34422724 0 0 Z " fill="#020202" transform="translate(413.7578125,133.75)"/>
<path d="M0 0 C2.875 1.5625 2.875 1.5625 5 4 C5.625 7.4375 5.625 7.4375 5 11 C1.70689226 14.8528765 -1.51537136 16.97257975 -6.0625 19.125 C-23.56431791 28.23308891 -34.59077938 44.64428841 -40.9375 63 C-42.30420284 68.01409104 -42.42319984 73.20606473 -42.44702148 78.38085938 C-42.5660584 83.18971389 -43.59924354 85.61195665 -47 89 C-49.84083641 90.42041821 -51.85477278 90.31452272 -55 90 C-57.4188841 88.35830249 -58.78367736 87.05716294 -59.38232422 84.1315918 C-59.54357877 81.80238873 -59.55357086 79.52175778 -59.5 77.1875 C-59.48646484 76.34018311 -59.47292969 75.49286621 -59.45898438 74.61987305 C-58.75173588 52.75479246 -47.22444382 32.27990627 -32 17 C-24.3290647 9.9448815 -10.97697005 -1.07617353 0 0 Z " fill="#030303" transform="translate(313,227)"/>
<path d="M0 0 C3.13671618 2.06362907 3.86318474 3.39553937 4.69140625 7.0546875 C5.06355611 11.8125528 4.47844074 15.90175898 3.5625 20.5625 C3.29723511 21.92375 3.29723511 21.92375 3.02661133 23.3125 C-2.1165576 47.84825556 -13.05504014 71.13778415 -32 88 C-35.09173752 89.54586876 -37.59429552 89.29359521 -41 89 C-43.4375 87.4375 -43.4375 87.4375 -45 85 C-45.59068941 80.93901029 -45.54838474 78.85304293 -43.3125 75.375 C-41.81207781 73.83402586 -40.29210057 72.31176445 -38.75 70.8125 C-22.79637035 54.49628786 -15.58471968 34.0542081 -12.51855469 11.76733398 C-11.45351023 4.63044441 -11.45351023 4.63044441 -9.09765625 1.35546875 C-5.92321644 -0.69579869 -3.68547466 -0.52649638 0 0 Z " fill="#030303" transform="translate(113,147)"/>
<path d="M0 0 C4.10603399 0.87362425 5.56575879 2.17519461 7.9375 5.625 C8.27978204 9.86929734 8.12101655 12.05482321 5.5625 15.44921875 C-10.32586676 30.68698428 -33.49737826 33.22157379 -54.41796875 32.8125 C-73.45742694 32.17930247 -73.45742694 32.17930247 -79.0625 26.625 C-80.1875 23.1875 -80.1875 23.1875 -80.0625 19.625 C-78.4375 16.625 -78.4375 16.625 -75.0625 14.625 C-72.13346275 14.52127355 -69.35749902 14.8726197 -66.4453125 15.2109375 C-46.66282739 17.33695879 -26.06670025 17.10797461 -9.0625 5.625 C-7.9399246 4.68829765 -6.83270968 3.73251033 -5.75 2.75 C-3.0625 0.625 -3.0625 0.625 0 0 Z " fill="#020202" transform="translate(395.0625,374.375)"/>
<path d="M0 0 C4.35787964 1.22689847 7.0877617 4.40275123 10.13671875 7.6015625 C10.87019531 8.32730469 11.60367187 9.05304688 12.359375 9.80078125 C26.6883138 24.67043472 33.22258254 43.26886736 33.44921875 63.7265625 C33.47822266 64.60699219 33.50722656 65.48742187 33.53710938 66.39453125 C33.57826751 70.59266098 33.51038476 72.97069781 31.33203125 76.6484375 C28.24772499 79.39248221 26.23629449 79.74540726 22.13671875 79.6015625 C19.42477292 77.62672986 17.45775606 76.05346427 16.70874023 72.66601562 C16.56031675 70.3645355 16.54757147 68.09509491 16.57421875 65.7890625 C16.16900753 47.41476848 10.74859118 32.32910057 -1.86328125 18.6015625 C-3.15482508 17.5136852 -4.46577646 16.44814408 -5.80078125 15.4140625 C-8.51569643 13.20975063 -8.86532207 12.59544004 -10.05078125 9.0390625 C-9.86328125 5.6015625 -9.86328125 5.6015625 -8.42578125 2.6640625 C-5.58736788 0.37948588 -3.65902201 -0.25701079 0 0 Z " fill="#030303" transform="translate(281.86328125,58.3984375)"/>
<path d="M0 0 C4.40962228 2.28576533 6.98363404 4.74209025 8.99609375 9.25 C9.73219773 14.70627586 9.94219559 20.22193656 7.43359375 25.25 C3.33989981 30.28839254 -1.68744683 32.8598283 -8.19140625 33.625 C-13.14988292 33.13728098 -16.21008312 31.41701757 -20.00390625 28.25 C-23.72464976 23.47981602 -25.43788299 19.56554618 -25.34765625 13.44140625 C-24.48431445 7.93760229 -21.14635568 4.14111056 -16.87890625 0.8125 C-11.16839015 -2.29104136 -6.07449598 -2.27349557 0 0 Z " fill="#030303" transform="translate(356.00390625,297.75)"/>
<path d="M0 0 C5.12202126 1.94253527 8.96033533 5.10224113 11.37890625 10.046875 C13.00751168 15.16827572 12.39546686 19.68177712 10.875 24.75 C8.19687672 29.39208036 5.19814814 32.26728395 0 34 C-5.76718785 34.73603851 -10.60520374 34.85205175 -15.5 31.4375 C-19.59776202 27.84356118 -21.55483818 24.22319695 -22.30859375 18.765625 C-22.60933447 13.33406537 -21.64427126 10.21968252 -18 6 C-12.16511067 0.50746387 -7.97488926 -1.01434995 0 0 Z " fill="#030303" transform="translate(164,178)"/>
<path d="M0 0 C4.35699098 2.46622131 7.04335342 5.33670683 9.3125 9.875 C9.8363576 15.13075165 9.97755372 19.52026095 7.625 24.3125 C3.99761715 28.33203235 0.82333198 31.46707476 -4.73828125 32.11328125 C-10.27646758 32.29501793 -13.33505155 31.62013006 -17.6875 27.875 C-22.31030935 22.62748668 -23.04081 19.5274561 -22.96875 12.63671875 C-22.44430645 7.48697444 -19.80705658 4.86127603 -16.0625 1.5625 C-10.83094803 -2.15465535 -5.95356591 -1.81634214 0 0 Z " fill="#888888" transform="translate(262.6875,402.125)"/>
<path d="M0 0 C5.35755096 1.92063148 8.45837216 4.91674432 11 10 C11.52940021 15.31135952 11.66363629 19.67272741 9.25 24.5 C4.72496001 29.52782221 1.78340764 30.77553164 -4.875 31.3125 C-9.24739427 31.23935586 -11.65719349 29.88696926 -15 27 C-18.97057221 22.38555121 -20.25891055 17.99809435 -20 12 C-18.27222852 6.71505194 -15.32853311 4.22337572 -11 1 C-7.54155176 -0.72922412 -3.78834735 -0.35136443 0 0 Z " fill="#878787" transform="translate(404,147)"/>
<path d="M0 0 C3.76137176 0.78361912 5.28585458 1.90647692 8 4.625 C8.84273275 7.23331721 9.36871668 9.39129631 9.75 12.0625 C9.86359863 12.76608643 9.97719727 13.46967285 10.09423828 14.19458008 C10.42591529 16.33503132 10.71930302 18.47731849 11 20.625 C11.16757812 21.86765625 11.33515625 23.1103125 11.5078125 24.390625 C12.52568124 33.87629537 12.52568124 33.87629537 9 38.625 C6.14675563 40.05162219 4.16545451 39.93533868 1 39.625 C-1.86703577 38.12632221 -3.51901026 36.90030993 -4.68359375 33.8125 C-5.24968526 31.4252614 -5.63824711 29.05190533 -6 26.625 C-6.18433594 25.55894531 -6.36867188 24.49289063 -6.55859375 23.39453125 C-9.02718397 8.60001468 -9.02718397 8.60001468 -7.08984375 4.875 C-5.01614176 1.99448791 -3.47969084 0.72493559 0 0 Z " fill="#020202" transform="translate(475,191.375)"/>
<path d="M0 0 C4.4125235 2.1661479 7.09058512 4.43862 9 9 C9.57057837 14.23030176 8.84948106 17.57839146 6 22 C2.62299279 25.04754309 0.36769013 26.86591273 -4.1875 27.3125 C-8.71183526 26.94165285 -11.5186739 25.88761157 -15 23 C-17.90417134 18.9716333 -18.63640523 15.13179349 -18.49609375 10.25390625 C-17.61580235 6.25447212 -15.02579848 3.63385567 -12 1 C-8.28763586 -0.85618207 -4.05156912 -0.44809981 0 0 Z " fill="#030303" transform="translate(353,112)"/>
<path d="M0 0 C3 2 3 2 3.6875 3.953125 C4.24930035 8.08235758 4.40100527 10.28710175 2.3125 14 C0.91796875 15.37890625 0.91796875 15.37890625 -1 17 C-1.91136719 17.79277344 -2.82273437 18.58554688 -3.76171875 19.40234375 C-11.83538515 26.03816391 -11.83538515 26.03816391 -16.6953125 25.87890625 C-20 25 -20 25 -23 23 C-23.99340952 19.79901376 -24.4475061 18.21184761 -24 15 C-19.59380261 7.12858974 -9.34951286 -1.71725746 0 0 Z " fill="#020202" transform="translate(119,65)"/>
<path d="M0 0 C4.73822209 -0.19677002 7.83112327 0.03808063 11.6640625 3.15234375 C13.25345597 6.33113069 13.07982961 8.64802095 12.6640625 12.15234375 C9.32433885 15.85776983 7.06620205 17.42867681 2.0625 17.81640625 C0.38802195 17.82957039 -1.28685341 17.81597646 -2.9609375 17.77734375 C-4.229375 17.80634766 -4.229375 17.80634766 -5.5234375 17.8359375 C-9.79217144 17.80227241 -11.6583774 17.77794372 -14.8828125 14.80078125 C-16.69780508 11.49281091 -17.10918191 9.86391694 -16.3359375 6.15234375 C-12.72308715 2.0878871 -10.06590348 0.56379275 -4.484375 0.2109375 C-2.98848677 0.17014055 -1.49327214 0.09738731 0 0 Z " fill="#050505" transform="translate(340.3359375,219.84765625)"/>
<path d="M0 0 C3.19072552 2.04533687 3.85117893 3.39231398 4.75 7.0625 C4.45874676 12.88756487 -0.35003129 17.79171868 -4 22 C-7.51824511 24.34549674 -8.85775694 24.57991403 -13 24 C-15.875 21.875 -15.875 21.875 -18 19 C-18.58211399 15.00916079 -18.19074472 13.31908531 -16.1015625 9.82421875 C-15.28429687 8.78910156 -14.46703125 7.75398438 -13.625 6.6875 C-13.2125 6.15060547 -12.8 5.61371094 -12.375 5.06054688 C-8.50713869 0.11342749 -6.31552075 -0.54444144 0 0 Z " fill="#030303" transform="translate(183,323)"/>
<path d="M0 0 C3.43583369 1.34738576 5.12078441 2.19126092 7.1875 5.25 C7.875 8 7.875 8 7.1875 11.25 C4.3634486 15.2757754 1.27898277 18.52234482 -2.8125 21.25 C-5.6875 21.75 -5.6875 21.75 -8.8125 21.25 C-12.44158896 18.084199 -13.65629019 16.65588827 -14.1875 11.875 C-11.77377817 5.51155153 -6.97265359 0.45722319 0 0 Z " fill="#060606" transform="translate(309.8125,262.75)"/>
</svg>
